<?xml version="1.0" encoding="iso-8859-1"?>
<!-- Generator: Adobe Illustrator 19.0.0, SVG Export Plug-In . SVG Version: 6.00 Build 0)  -->
<svg version="1.1" id="Layer_1" xmlns="http://www.w3.org/2000/svg" xmlns:xlink="http://www.w3.org/1999/xlink" x="0px" y="0px"
	 viewBox="0 0 512 512" style="enable-background:new 0 0 512 512;" xml:space="preserve">
<circle style="fill:#FF473E;" cx="255.996" cy="255.997" r="255.996"/>
<path style="fill:#D13434;" d="M512,256.001c0-30.215-5.249-59.2-14.861-86.113l-94.586-94.586
	c-2.849-2.849-7.382-4.585-12.692,1.295c-0.924,1.023-2.521,3.01-4.536,5.603l-3.106-3.106c-1.658-1.658-4.371-1.658-6.029,0
	l-0.75,0.75c-1.658,1.658-1.658,4.371,0,6.029l4.013,4.013c-1.537,2.035-3.155,4.19-4.803,6.398l-4.811-4.811
	c-1.658-1.658-4.371-1.658-6.029,0l-0.75,0.75c-1.658,1.658-1.658,4.371,0,6.029l5.804,5.804c-1.633,2.202-3.236,4.368-4.765,6.436
	l-6.64-6.64c-1.658-1.658-4.371-1.658-6.029,0l-0.75,0.75c-1.658,1.658-1.658,4.371,0,6.029l7.662,7.663
	c-2.482,3.366-4.376,5.938-5.258,7.118c-3.82,5.111-2.775,8.972-0.505,11.243c0.054,0.054,0.121,0.121,0.182,0.182l-74.418,74.418
	c-16.194-12.213-34.037-18.221-52.458-16.871c-23.109,1.694-29.91,14.239-41.915,41.915c-14.033,32.347-35.317,18.245-74.92,33.217
	c-39.396,14.894-87.854,70.647-12.584,145.917l85.866,85.788c23.332,7,48.057,10.778,73.669,10.778
	C397.385,512.001,512,397.386,512,256.001z"/>
<g>
	<path style="fill:#FFFFFF;" d="M384.148,94.581l-8.709-8.709c-1.658-1.658-1.658-4.371,0-6.029l0.75-0.75
		c1.658-1.658,4.371-1.658,6.029,0l8.709,8.709c1.658,1.658,1.658,4.371,0,6.029l-0.75,0.75
		C388.519,96.239,385.805,96.239,384.148,94.581z"/>
	<path style="fill:#FFFFFF;" d="M371.767,106.961l-8.709-8.709c-1.658-1.658-1.658-4.371,0-6.029l0.75-0.75
		c1.658-1.658,4.371-1.658,6.029,0l8.709,8.709c1.658,1.658,1.658,4.371,0,6.029l-0.75,0.75
		C376.139,108.619,373.426,108.619,371.767,106.961z"/>
	<path style="fill:#FFFFFF;" d="M359.388,119.34l-8.709-8.709c-1.658-1.658-1.658-4.371,0-6.029l0.75-0.75
		c1.658-1.658,4.371-1.658,6.029,0l8.709,8.709c1.658,1.658,1.658,4.371,0,6.029l-0.75,0.75
		C363.759,120.999,361.046,120.999,359.388,119.34z"/>
</g>
<g>
	<path style="fill:#E4E4E4;" d="M426.172,136.605l-8.709-8.709c-1.658-1.658-1.658-4.371,0-6.029l0.75-0.75
		c1.658-1.658,4.371-1.658,6.029,0l8.709,8.709c1.658,1.658,1.658,4.371,0,6.029l-0.75,0.75
		C430.543,138.263,427.83,138.263,426.172,136.605z"/>
	<path style="fill:#E4E4E4;" d="M413.792,148.985l-8.709-8.709c-1.658-1.658-1.658-4.371,0-6.029l0.75-0.75
		c1.658-1.658,4.371-1.658,6.029,0l8.709,8.709c1.658,1.658,1.658,4.371,0,6.029l-0.75,0.75
		C418.163,150.643,415.45,150.643,413.792,148.985z"/>
	<path style="fill:#E4E4E4;" d="M401.413,161.365l-8.709-8.709c-1.658-1.658-1.658-4.371,0-6.029l0.75-0.75
		c1.658-1.658,4.371-1.658,6.029,0l8.709,8.709c1.658,1.658,1.658,4.371,0,6.029l-0.75,0.75
		C405.783,163.023,403.07,163.023,401.413,161.365z"/>
</g>
<path style="fill:#D6954D;" d="M242.559,403.028c14.972-39.603,0.869-60.888,33.217-74.92
	c27.677-12.006,40.222-18.807,41.915-41.915c1.692-23.089-8.213-45.322-27.373-64.483c-19.16-19.16-41.346-29.017-64.435-27.325
	c-23.109,1.694-29.91,14.239-41.915,41.915c-14.033,32.348-35.317,18.245-74.92,33.217c-39.396,14.894-87.854,70.647-12.584,145.917
	S227.666,442.424,242.559,403.028z"/>
<path style="fill:#B27F4D;" d="M242.559,403.028c14.972-39.604,0.869-60.888,33.217-74.92
	c27.677-12.006,40.222-18.807,41.915-41.915c1.692-23.085-8.21-45.316-27.364-64.473L96.54,415.507
	C171.771,490.67,227.671,442.412,242.559,403.028z"/>
<circle style="fill:#ABCE2E;" cx="212.54" cy="299.506" r="38.671"/>
<path style="fill:#2D9627;" d="M239.885,326.855c15.103-15.103,15.103-39.59,0-54.693l-54.693,54.693
	C200.296,341.958,224.783,341.958,239.885,326.855z"/>
<circle style="fill:#57555C;" cx="212.54" cy="299.506" r="30.981"/>
<rect x="106.906" y="359.414" transform="matrix(-0.7071 -0.7071 0.7071 -0.7071 -10.6035 728.5321)" style="fill:#ABCE2E;" width="77.352" height="14.096"/>
<path style="fill:#FFC536;" d="M436.741,109.491c-2.843-2.843-31.345-31.345-34.189-34.19c-2.849-2.849-7.382-4.585-12.692,1.295
	c-5.309,5.88-32.555,43.167-36.777,48.816c-3.82,5.111-2.775,8.972-0.505,11.243c0.054,0.054,0.121,0.121,0.182,0.182
	L242.694,246.905c4.971,1.881,9.634,4.812,13.636,8.814c4.002,4.002,6.932,8.665,8.814,13.636L375.21,159.287
	c0.06,0.06,0.125,0.125,0.18,0.18c2.271,2.271,6.132,3.315,11.243-0.505c5.649-4.221,42.936-31.468,48.816-36.777
	C441.326,116.874,439.591,112.342,436.741,109.491z"/>
<path style="fill:#29292B;" d="M234.446,321.414c12.099-12.099,12.099-31.714,0-43.813l-43.814,43.813
	C202.73,333.513,222.347,333.513,234.446,321.414z"/>
<rect x="139.921" y="373.085" transform="matrix(-0.7071 -0.7071 0.7071 -0.7071 3.0734 761.5394)" style="fill:#2D9627;" width="38.671" height="14.096"/>
<path style="fill:#FF8736;" d="M265.142,269.353l110.067-110.067c0.06,0.06,0.125,0.125,0.18,0.179
	c2.271,2.271,6.132,3.315,11.243-0.505c5.649-4.221,42.936-31.468,48.816-36.777c5.88-5.309,4.143-9.842,1.294-12.691
	c-1.422-1.421-9.258-9.258-17.093-17.093L256.329,255.717C260.331,259.719,263.261,264.383,265.142,269.353z"/>
<g>
</g>
<g>
</g>
<g>
</g>
<g>
</g>
<g>
</g>
<g>
</g>
<g>
</g>
<g>
</g>
<g>
</g>
<g>
</g>
<g>
</g>
<g>
</g>
<g>
</g>
<g>
</g>
<g>
</g>
</svg>
