<?xml version="1.0" encoding="iso-8859-1"?>
<!-- Generator: Adobe Illustrator 19.0.0, SVG Export Plug-In . SVG Version: 6.00 Build 0)  -->
<svg version="1.1" id="Capa_1" xmlns="http://www.w3.org/2000/svg" xmlns:xlink="http://www.w3.org/1999/xlink" x="0px" y="0px"
	 viewBox="0 0 512 512" style="enable-background:new 0 0 512 512;" xml:space="preserve">
<path style="fill:#EDBB57;" d="M512,256c0,141.385-114.615,256-256,256c-41.775,0-81.199-10-116.036-27.742
	c-20.616-10.501-39.633-23.719-56.55-39.184c-8.537-7.795-16.551-16.175-23.98-25.057c-15.423-18.474-28.306-39.163-38.076-61.503
	C7.617,327.126,0,292.456,0,256C0,114.615,114.615,0,256,0S512,114.615,512,256z"/>
<circle style="fill:#F4D984;" cx="256" cy="192.784" r="184.947"/>
<g>
	<path style="fill:#DCDBDD;" d="M464.079,22.708c4.272-4.272-1.458-16.927-5.73-21.199s-5.468,1.458-9.74,5.73
		s-10.002,5.468-5.73,9.739C447.152,21.25,459.807,26.979,464.079,22.708z"/>
	<path style="fill:#DCDBDD;" d="M483.427,42.056c4.272-4.272,16.927,1.458,21.199,5.73s-1.458,5.468-5.73,9.739
		c-4.272,4.272-5.468,10.002-9.74,5.73C484.885,58.983,479.156,46.328,483.427,42.056z"/>
	<path style="fill:#DCDBDD;" d="M438.218,48.569c4.272-4.272-1.458-16.927-5.73-21.199s-5.468,1.458-9.74,5.73
		c-4.272,4.272-10.002,5.468-5.73,9.739C421.289,47.111,433.946,52.842,438.218,48.569z"/>
	<path style="fill:#DCDBDD;" d="M457.566,67.917c4.272-4.272,16.927,1.458,21.199,5.73c4.272,4.272-1.458,5.468-5.73,9.739
		c-4.272,4.272-5.468,10.002-9.74,5.73C459.024,84.845,453.294,72.189,457.566,67.917z"/>
</g>
<path style="fill:#AF653D;" d="M273.523,293.251c5.736,21.953,1.442,44.304-13.636,59.371c-6.416,6.426-13.667,12.612-21.41,18.401
	c-1.337-0.909-2.779-1.714-4.326-2.33c-13.782-5.59-30.469,3.448-37.251,20.187c-4.984,12.278-3.239,25.276,3.49,33.552
	c-12.925,21.734-25.454,39.194-33.343,47.083c-7.471,7.471-16.771,12.351-27.084,14.743
	C87.301,457.425,45.15,412.902,21.358,358.515c2.685-8.108,7.064-15.423,13.166-21.525c7.889-7.889,25.36-20.417,47.083-33.343
	c8.276,6.729,21.274,8.474,33.552,3.49c16.739-6.781,25.778-23.458,20.187-37.251c-0.637-1.567-1.442-3.02-2.372-4.368
	c5.789-7.69,11.975-14.911,18.442-21.368c15.067-15.067,37.418-19.372,59.371-13.636c18.307,4.775,37.784-0.575,51.158-13.949
	l25.349,25.349C273.92,255.289,268.748,274.944,273.523,293.251z"/>
<g>
	<path style="fill:#DCDBDD;" d="M171.767,369.334l-10.542,10.542c-1.428,1.428-3.744,1.428-5.171,0l-31.889-31.889
		c-1.428-1.428-1.428-3.744,0-5.171l10.542-10.542c1.428-1.428,3.744-1.428,5.171,0l31.889,31.889
		C173.195,365.59,173.195,367.905,171.767,369.334z"/>
	<path style="fill:#DCDBDD;" d="M140.661,403.601l-40.223-40.223c-1.632-1.632-1.632-4.279,0-5.911l0,0
		c1.632-1.632,4.279-1.632,5.911,0l40.223,40.223c1.632,1.632,1.632,4.279,0,5.911l0,0
		C144.94,405.233,142.293,405.233,140.661,403.601z"/>
	<path style="fill:#DCDBDD;" d="M115.952,420.415l-32.538,24.66c-8.537-7.795-16.551-16.175-23.98-25.057l24.189-31.932
		L115.952,420.415z"/>
</g>
<circle style="fill:#353434;" cx="142.043" cy="455.074" r="8.813"/>
<rect x="412.634" y="73.502" transform="matrix(-0.7071 -0.7071 0.7071 -0.7071 672.5894 433.9584)" width="27.072" height="8.358"/>
<path style="fill:#EAC76C;" d="M510.095,30.481l-4.891,1.434c-3.568,1.042-6.916,2.733-9.871,4.98
	c-7.913,6.022-15.39,12.539-22.38,19.528c-9.287,9.287-17.733,19.417-25.283,30.307l-11.918,0.525l-1.921,1.995l-2.904,3.007
	l-17.732,18.398l-4.817,5.009l-17.734,18.398l-4.824,5.002l-17.733,18.398l-4.824,5.002l-17.733,18.398l-4.817,5.009l-17.733,18.398
	l-4.824,5.002l-13.129,13.617l-4.817,5.009l-13.129,13.617l-4.825,5.002l-13.122,13.624l-4.824,5.002l-13.129,13.617l-4.817,5.009
	l-11.172,11.585l-26.68-26.68l11.585-11.171l5.009-4.817l13.617-13.129l5.002-4.825l13.624-13.122l5.002-4.824l13.617-13.129
	l5.009-4.817l13.617-13.129l5.002-4.824l18.397-17.733l5.009-4.817l18.398-17.733l5.002-4.825l18.397-17.732l5.002-4.824
	l18.398-17.733l5.009-4.817l18.397-17.733l3.007-2.904l1.995-1.921l0.525-11.918c20.695-14.341,38.612-31.948,53.301-52.356
	c0.133-0.178,0.266-0.34,0.414-0.488c1.404-1.404,3.679-1.552,5.268-0.258c5.32,4.345,10.884,8.401,16.624,12.162
	c5.748,3.753,11.703,7.211,17.821,10.343C512.681,26.683,512.393,29.808,510.095,30.481z"/>
<path style="fill:#AF653D;" d="M510.095,30.481l-4.891,1.434c-3.568,1.042-6.916,2.733-9.871,4.98
	c-7.913,6.022-15.39,12.539-22.38,19.528c-9.287,9.287-17.733,19.417-25.283,30.307l-11.918,0.525l-1.921,1.995l-19.218-19.218
	l1.995-1.921l0.525-11.918c20.695-14.341,38.612-31.948,53.301-52.356c0.133-0.178,0.266-0.34,0.414-0.488
	c1.404-1.404,3.679-1.552,5.268-0.258c5.32,4.345,10.884,8.401,16.624,12.162c5.748,3.753,11.703,7.211,17.821,10.343
	C512.681,26.683,512.393,29.808,510.095,30.481z"/>
<g>
	<circle style="fill:#DCDBDD;" cx="466.85" cy="25.479" r="7.053"/>
	<circle style="fill:#DCDBDD;" cx="442.096" cy="50.228" r="7.053"/>
	<circle style="fill:#DCDBDD;" cx="454.29" cy="62.421" r="7.053"/>
	<circle style="fill:#DCDBDD;" cx="479.044" cy="37.669" r="7.053"/>
</g>
<g>
	<polygon style="fill:#5B5560;" points="408.376,115.663 388.198,95.485 393.209,90.668 413.194,110.654 	"/>
	<polygon style="fill:#5B5560;" points="385.82,139.062 364.799,118.042 369.801,113.218 390.645,134.06 	"/>
	<polygon style="fill:#5B5560;" points="363.263,162.462 341.4,140.599 346.401,135.774 368.087,157.46 	"/>
	<polygon style="fill:#5B5560;" points="340.713,185.869 317.993,163.149 323.002,158.331 345.53,180.859 	"/>
	<polygon style="fill:#5B5560;" points="318.156,209.268 294.593,185.707 299.595,180.881 322.98,204.266 	"/>
	<polygon style="fill:#5B5560;" points="300.209,227.895 275.967,203.653 280.976,198.836 305.026,222.885 	"/>
	<polygon style="fill:#5B5560;" points="282.254,246.514 257.348,221.607 262.35,216.783 287.079,241.512 	"/>
	<polygon style="fill:#5B5560;" points="264.308,265.141 238.722,239.554 243.723,234.729 269.132,260.139 	"/>
	<polygon style="fill:#5B5560;" points="246.361,283.767 220.094,257.5 225.104,252.683 251.178,278.758 	"/>
</g>
<path style="fill:#DCDBDD;" d="M237.61,303.491l-9.994,9.994c-1.579,1.579-4.14,1.579-5.72,0l-31.342-31.342
	c-1.579-1.579-1.579-4.14,0-5.72l9.994-9.994c1.579-1.579,4.14-1.579,5.72,0l31.342,31.342
	C239.189,299.351,239.189,301.911,237.61,303.491z"/>
<g>
	
		<rect x="251.755" y="3.878" transform="matrix(-0.7014 -0.7127 0.7127 -0.7014 264.5332 577.9677)" style="fill:#FFFFFF;" width="3.135" height="459.398"/>
	
		<rect x="257.408" y="9.532" transform="matrix(-0.7055 -0.7087 0.7087 -0.7055 272.136 591.5535)" style="fill:#FFFFFF;" width="3.135" height="459.407"/>
	
		<rect x="35.096" y="243.496" transform="matrix(0.7055 -0.7087 0.7087 0.7055 -95.6952 259.8347)" style="fill:#FFFFFF;" width="459.407" height="3.135"/>
	
		<rect x="40.715" y="249.13" transform="matrix(0.7015 -0.7127 0.7127 0.7015 -97.9405 267.5686)" style="fill:#FFFFFF;" width="459.431" height="3.135"/>
</g>
<rect x="66.752" y="400.067" transform="matrix(-0.7071 -0.7071 0.7071 -0.7071 -115.4917 760.6552)" style="fill:#DCDBDD;" width="66.079" height="8.359"/>
<polygon style="fill:#5B5560;" points="430.926,92.256 411.606,72.935 416.608,68.111 435.752,87.254 "/>
<g>
</g>
<g>
</g>
<g>
</g>
<g>
</g>
<g>
</g>
<g>
</g>
<g>
</g>
<g>
</g>
<g>
</g>
<g>
</g>
<g>
</g>
<g>
</g>
<g>
</g>
<g>
</g>
<g>
</g>
</svg>
