<?xml version="1.0" encoding="iso-8859-1"?>
<!-- Generator: Adobe Illustrator 19.0.0, SVG Export Plug-In . SVG Version: 6.00 Build 0)  -->
<svg version="1.1" id="Capa_1" xmlns="http://www.w3.org/2000/svg" xmlns:xlink="http://www.w3.org/1999/xlink" x="0px" y="0px"
	 viewBox="0 0 512 512" style="enable-background:new 0 0 512 512;" xml:space="preserve">
<path style="fill:#FFD33F;" d="M169.151,347.119h173.698c7.281-28.177,18.97-55.018,34.642-79.542V26.034l-9.902,1.241
	c-26.772,2.603-53.474-5.649-74.11-22.91c-3.211-2.708-7.246-4.244-11.446-4.365c-5.753-0.009-11.351,1.9-15.907,5.424
	c-5.996,4.513-14.258,4.513-20.254,0C241.317,1.901,235.72-0.009,229.966,0c-4.191,0.113-8.227,1.64-11.446,4.339
	c-20.636,17.26-47.338,25.513-74.11,22.91l-9.902-1.215v241.543C150.181,292.1,161.87,318.941,169.151,347.119z"/>
<g>
	<rect x="169.22" y="69.424" style="fill:#383856;" width="17.356" height="86.78"/>
	<rect x="186.576" y="156.203" style="fill:#383856;" width="17.356" height="86.78"/>
	<rect x="325.424" y="69.424" style="fill:#383856;" width="17.356" height="86.78"/>
	<rect x="308.068" y="156.203" style="fill:#383856;" width="17.356" height="86.78"/>
</g>
<g>
	<path style="fill:#FFD33F;" d="M82.441,43.39h17.356v52.068H82.441c-9.589,0-17.356-7.767-17.356-17.356V60.746
		C65.085,51.157,72.852,43.39,82.441,43.39z"/>
	<path style="fill:#FFD33F;" d="M82.441,130.17h17.356v52.068H82.441c-9.589,0-17.356-7.767-17.356-17.356v-17.356
		C65.085,137.936,72.852,130.17,82.441,130.17z"/>
	<path style="fill:#FFD33F;" d="M82.441,216.949h17.356v52.068H82.441c-9.589,0-17.356-7.767-17.356-17.356v-17.356
		C65.085,224.716,72.852,216.949,82.441,216.949z"/>
	<rect x="169.22" y="381.831" style="fill:#FFD33F;" width="173.559" height="130.169"/>
</g>
<rect x="169.22" y="347.119" style="fill:#874D1B;" width="173.559" height="34.712"/>
<g>
	<path style="fill:#FFAC3E;" d="M169.22,391.064V512H342.78V381.831H185.04C179.643,385.059,174.366,388.139,169.22,391.064z"/>
	<path style="fill:#FFAC3E;" d="M238.28,347.119h104.569c7.281-28.177,18.97-55.018,34.642-79.542v-56.702
		C339.282,263.975,292.187,310.064,238.28,347.119z"/>
</g>
<path style="fill:#6B3713;" d="M185.04,381.831H342.78v-34.712h-104.5C219.952,360.136,201.945,371.721,185.04,381.831z"/>
<rect x="169.22" y="477.288" style="fill:#91CECE;" width="173.559" height="17.356"/>
<g>
	<rect x="99.797" y="60.746" style="fill:#383856;" width="34.712" height="17.356"/>
	<rect x="99.797" y="147.525" style="fill:#383856;" width="34.712" height="17.356"/>
	<rect x="99.797" y="234.305" style="fill:#383856;" width="34.712" height="17.356"/>
</g>
<path style="fill:#FFD33F;" d="M429.559,43.39h-17.356v52.068h17.356c9.589,0,17.356-7.767,17.356-17.356V60.746
	C446.915,51.157,439.148,43.39,429.559,43.39z"/>
<rect x="377.492" y="60.746" style="fill:#383856;" width="34.712" height="17.356"/>
<path style="fill:#FFD33F;" d="M429.559,130.17h-17.356v52.068h17.356c9.589,0,17.356-7.767,17.356-17.356v-17.356
	C446.915,137.936,439.148,130.17,429.559,130.17z"/>
<rect x="377.492" y="147.525" style="fill:#383856;" width="34.712" height="17.356"/>
<path style="fill:#FFD33F;" d="M429.559,216.949h-17.356v52.068h17.356c9.589,0,17.356-7.767,17.356-17.356v-17.356
	C446.915,224.716,439.148,216.949,429.559,216.949z"/>
<g>
	<rect x="377.492" y="234.305" style="fill:#383856;" width="34.712" height="17.356"/>
	<rect x="299.39" y="381.831" style="fill:#383856;" width="17.356" height="130.169"/>
	<rect x="264.678" y="381.831" style="fill:#383856;" width="17.356" height="130.169"/>
	<rect x="229.966" y="381.831" style="fill:#383856;" width="17.356" height="130.169"/>
	<rect x="195.254" y="381.831" style="fill:#383856;" width="17.356" height="130.169"/>
</g>
<g>
	<path style="fill:#FFAC3E;" d="M412.203,95.458h17.356c9.589,0,17.356-7.767,17.356-17.356V60.746
		c-0.026-1.701-0.304-3.393-0.824-5.016C441.049,95.327,412.203,95.458,412.203,95.458z"/>
	<path style="fill:#FFAC3E;" d="M412.203,182.237h17.356c9.589,0,17.356-7.767,17.356-17.356v-17.356
		c-0.026-1.701-0.304-3.393-0.824-5.016C441.049,182.107,412.203,182.237,412.203,182.237z"/>
	<path style="fill:#FFAC3E;" d="M412.203,269.017h17.356c9.589,0,17.356-7.767,17.356-17.356v-17.356
		c-0.026-1.701-0.304-3.393-0.824-5.016C441.049,268.887,412.203,269.017,412.203,269.017z"/>
	<path style="fill:#FFAC3E;" d="M99.797,95.458V75.819c-7.116,7.871-16.15,13.772-26.225,17.13c2.673,1.623,5.736,2.491,8.869,2.508
		H99.797z"/>
	<path style="fill:#FFAC3E;" d="M73.572,179.729c2.673,1.623,5.736,2.491,8.869,2.508h17.356v-19.638
		C92.681,170.47,83.647,176.371,73.572,179.729z"/>
	<path style="fill:#FFAC3E;" d="M73.572,266.509c2.673,1.623,5.736,2.491,8.869,2.508h17.356v-19.638
		C92.681,257.25,83.647,263.151,73.572,266.509z"/>
</g>
<g>
	<circle style="fill:#EA3836;" cx="186.576" cy="69.424" r="17.356"/>
	<circle style="fill:#EA3836;" cx="186.576" cy="156.203" r="17.356"/>
	<circle style="fill:#EA3836;" cx="186.576" cy="242.983" r="17.356"/>
	<circle style="fill:#EA3836;" cx="325.424" cy="69.424" r="17.356"/>
	<circle style="fill:#EA3836;" cx="325.424" cy="156.203" r="17.356"/>
	<circle style="fill:#EA3836;" cx="325.424" cy="242.983" r="17.356"/>
</g>
<g>
	<path style="fill:#D62121;" d="M193.692,53.63c3.975,8.678,0.148,18.935-8.53,22.91c-4.565,2.091-9.815,2.091-14.379,0
		c3.896,8.756,14.154,12.705,22.91,8.808c8.756-3.896,12.705-14.154,8.808-22.91C200.756,58.516,197.615,55.374,193.692,53.63z"/>
	<path style="fill:#D62121;" d="M193.692,140.41c3.975,8.678,0.148,18.935-8.53,22.91c-4.565,2.091-9.815,2.091-14.379,0
		c3.896,8.756,14.154,12.705,22.91,8.808c8.756-3.896,12.705-14.154,8.808-22.91C200.756,145.295,197.615,142.154,193.692,140.41z"
		/>
	<path style="fill:#D62121;" d="M193.692,227.189c3.975,8.678,0.148,18.935-8.53,22.91c-4.565,2.091-9.815,2.091-14.379,0
		c3.896,8.756,14.154,12.705,22.91,8.808c8.756-3.896,12.705-14.154,8.808-22.91C200.756,232.075,197.615,228.933,193.692,227.189z"
		/>
	<path style="fill:#D62121;" d="M332.54,53.63c3.975,8.678,0.148,18.935-8.53,22.91c-4.565,2.091-9.815,2.091-14.379,0
		c3.896,8.756,14.154,12.705,22.91,8.808c8.756-3.896,12.705-14.154,8.808-22.91C339.604,58.516,336.462,55.374,332.54,53.63z"/>
	<path style="fill:#D62121;" d="M332.54,140.41c3.975,8.678,0.148,18.935-8.53,22.91c-4.565,2.091-9.815,2.091-14.379,0
		c3.896,8.756,14.154,12.705,22.91,8.808c8.756-3.896,12.705-14.154,8.808-22.91C339.604,145.295,336.462,142.154,332.54,140.41z"/>
	<path style="fill:#D62121;" d="M332.54,227.189c3.975,8.678,0.148,18.935-8.53,22.91c-4.565,2.091-9.815,2.091-14.379,0
		c3.896,8.756,14.154,12.705,22.91,8.808c8.756-3.896,12.705-14.154,8.808-22.91C339.604,232.075,336.462,228.933,332.54,227.189z"
		/>
</g>
<g>
</g>
<g>
</g>
<g>
</g>
<g>
</g>
<g>
</g>
<g>
</g>
<g>
</g>
<g>
</g>
<g>
</g>
<g>
</g>
<g>
</g>
<g>
</g>
<g>
</g>
<g>
</g>
<g>
</g>
</svg>
