<?xml version="1.0" encoding="iso-8859-1"?>
<!-- Generator: Adobe Illustrator 19.0.0, SVG Export Plug-In . SVG Version: 6.00 Build 0)  -->
<svg version="1.1" id="Capa_1" xmlns="http://www.w3.org/2000/svg" xmlns:xlink="http://www.w3.org/1999/xlink" x="0px" y="0px"
	 viewBox="0 0 512 512" style="enable-background:new 0 0 512 512;" xml:space="preserve">
<circle style="fill:#E25F3F;" cx="256" cy="256" r="256"/>
<path style="fill:#A2482A;" d="M394.66,116.492l-0.005,0.005c-4.341-4.314-8.848-8.403-13.507-12.257l-83.861,83.861
	c-1.987,1.987-4.71,3.061-7.519,2.965c-2.809-0.096-5.452-1.353-7.299-3.47c-2.752-3.155-3.823-7.394-2.984-11.44
	c2.412-4.689,3.872-9.322,4.287-13.541l0.015-0.047l-0.009,0.003c0.532-5.494-0.701-10.281-3.951-13.53
	c-8.475-8.475-27.349-3.339-42.158,11.47c-7.146,7.146-12.013,15.233-14.211,22.649l-0.021,0.007l-0.026,0.143
	c-0.674,2.311-1.089,4.551-1.225,6.678l-0.256,1.396c-2.9,15.812-17.887,26.392-33.76,23.844
	c-58.999-9.468-83.675,23.077-90.045,29.446c-31.737,31.737-27.226,102.429,18.898,149.46l-0.02,0.02c0,0,0.12,0.12,0.269,0.269
	l116.623,116.623C241.183,511.663,248.551,512,256,512c141.385,0,256-114.615,256-256c0-7.832-0.372-15.575-1.061-23.229
	L394.66,116.492z"/>
<g>
	
		<rect x="223.761" y="262.334" transform="matrix(0.7071 0.7071 -0.7071 0.7071 263.1453 -93.547)" style="fill:#FFFFFF;" width="41.467" height="17.075"/>
	
		<rect x="266.315" y="219.782" transform="matrix(0.7071 0.7071 -0.7071 0.7071 245.5208 -136.1004)" style="fill:#FFFFFF;" width="41.467" height="17.075"/>
	<path style="fill:#FFFFFF;" d="M289.769,191.065c-2.809-0.096-5.452-1.353-7.299-3.47c-2.752-3.155-3.823-7.394-2.984-11.44
		c2.412-4.689,3.872-9.322,4.287-13.541l0.016-0.047l-0.009,0.003c0.532-5.494-0.701-10.281-3.951-13.53
		c-8.475-8.474-27.35-3.339-42.158,11.47c-7.146,7.146-12.013,15.233-14.211,22.649l-0.021,0.007l-0.026,0.143
		c-0.675,2.311-1.089,4.551-1.225,6.678l-0.256,1.396c-2.9,15.812-17.887,26.392-33.76,23.845
		c-58.999-9.468-83.675,23.077-90.045,29.446c-31.737,31.737-27.226,102.429,18.898,149.46l-0.02,0.02
		c0.001,0.001,0.847,0.847,0.848,0.848l0.02-0.02c47.03,46.122,117.721,50.635,149.46,18.897
		c6.369-6.368,38.914-31.046,29.446-90.045c-2.547-15.873,8.032-30.86,23.845-33.76l1.396-0.256
		c2.127-0.135,4.367-0.551,6.678-1.225l0.143-0.026l0.007-0.021c7.414-2.198,15.501-7.064,22.649-14.211
		c14.808-14.808,19.943-33.683,11.47-42.158c-3.25-3.25-8.037-4.482-13.53-3.951l0.003-0.01l-0.047,0.016
		c-4.22,0.415-8.853,1.876-13.542,4.287c-4.046,0.839-8.285-0.232-11.44-2.984c-2.118-1.847-3.374-4.49-3.47-7.299
		c-0.096-2.809,0.978-5.531,2.965-7.519l83.861-83.861c-3.981-4.811-8.205-9.464-12.676-13.936
		c-4.472-4.472-9.125-8.695-13.936-12.676l-83.861,83.861C295.3,190.087,292.578,191.161,289.769,191.065z M167.282,258.026
		c0,0-15.861,2.325-27.434,7.698c-11.572,5.373-18.101,3.672-19.425,1.24c-1.94-1.94-1.94-5.086,0-7.026
		c1.94-1.94,5.085-1.94,7.027,0c1.12,1.12,1.572,2.64,1.4,4.099c3.964,0.452,14.18-1.295,34.146-21.459
		c0,0,14.465,0.413,25.005-4.753c8.605-4.219,14.613-4.197,18.314-2.816c0.865,0.359,1.65,0.875,2.248,1.473
		c1.426,1.426,1.426,3.739,0,5.166c-1.426,1.427-3.739,1.426-5.166,0c-0.69-0.69-1.039-1.587-1.062-2.492
		C202.332,239.157,184.588,237.31,167.282,258.026z M230.26,326.068c-2.14,2.14-5.609,2.14-7.749,0l-36.578-36.578
		c-2.14-2.14-2.14-5.609,0-7.749c2.14-2.14,5.609-2.14,7.749,0l36.578,36.578C232.4,320.459,232.4,323.928,230.26,326.068z
		 M317.516,256.494c-4.419,7.079-19.44,16.205-20.015,33.454c-0.575,17.248-3.556,23.88-9.487,31.334
		c-4.83,6.073-11.519,5.873-15.232,2.017c-4.092,9.597-3.755,21.733-3.755,21.733c-18.699,18.516-20.319,27.989-19.9,31.665
		c1.354-0.16,2.763,0.259,3.801,1.298c1.799,1.8,1.799,4.717,0,6.516c-1.799,1.799-4.717,1.8-6.516,0
		c-2.255-1.229-3.833-7.283,1.15-18.015c4.983-10.732,7.138-25.441,7.138-25.441c9.306-7.774,13.68-15.627,15.74-21.675
		c-2.702-5.854-12.368-18.244-15.744-22.495l-1.578,1.578l-36.221-36.221l18.973-18.973l29.719,29.719l23.573-23.573l-29.719-29.719
		l18.973-18.973l36.221,36.221l-1.233,1.233C321.158,242.219,321.633,249.899,317.516,256.494z"/>
</g>
<g>
</g>
<g>
</g>
<g>
</g>
<g>
</g>
<g>
</g>
<g>
</g>
<g>
</g>
<g>
</g>
<g>
</g>
<g>
</g>
<g>
</g>
<g>
</g>
<g>
</g>
<g>
</g>
<g>
</g>
</svg>
