<svg xmlns="http://www.w3.org/2000/svg" width="616" height="1659"><g fill="none" fill-rule="evenodd"><path fill="#000105" d="m315.564 1630.27 1.262 1.86c1.302 1.91-.068 4.49-2.368 4.49h-12.489c-2.309 0-3.67-2.58-2.378-4.49l1.273-1.86c-37.769 3.54-211.02 12.16-280.773-118.25-51.421-96.14 9.161-234.14 55.474-315.75 24.164-42.57 31.025-92.91 18.683-140.29-8.319-31.94-14.7-69.73-11.93-103.2 6.41-77.651 63.567-116.966 181.315-108.109 2.232-197.023 5.677-519.821 4.796-562.18-.029-1.644-.068-2.867-.117-3.641a60.577 60.577 0 0 0-.333-3.582c-2.525-20.69-15.219-35.243-21.493-41.292a9.11 9.11 0 0 1-2.671-8.045 908.627 908.627 0 0 0 2.779-18.057c3.073-21.257 5.07-40.166 6.264-56.873.166-2.388.323-4.727.46-7.017 1.419-23.293 1.272-42.016.44-56.618a462.197 462.197 0 0 0-.47-7.018c-1.057-13.467-2.652-22.755-3.865-28.343-.744-3.435 1.673-6.743 5.167-7.066 8.212-.764 21.992-2.486 31.035-6.039 2.368-.93 5.04-.734 7.145.675 3.846 2.574 11.167 5.344 21.042-.469 2.045-1.204 4.551-1.341 6.753-.431 9.033 3.709 23.215 5.491 31.602 6.264 3.494.323 5.912 3.631 5.168 7.066-1.214 5.588-2.809 14.876-3.866 28.343a475.502 475.502 0 0 0-.47 7.018c-.832 14.602-.978 33.325.441 56.618.137 2.29.293 4.629.46 7.017 1.194 16.707 3.19 35.616 6.264 56.873.332 2.31.675 4.649 1.037 7.018a889.45 889.45 0 0 0 1.742 11.039 9.113 9.113 0 0 1-2.672 8.045c-6.273 6.049-18.967 20.602-21.492 41.292a59.742 59.742 0 0 0-.333 3.582c-.049.774-.078 1.997-.108 3.641-.695 42.398 5.481 365.803 9.386 562.592 121.174-10.385 179.877 28.94 186.376 107.697 2.77 33.47-3.612 71.26-11.931 103.2-12.341 47.38-5.481 97.72 18.684 140.29 46.312 81.61 106.904 219.61 55.473 315.75-69.752 130.41-243.004 121.79-280.762 118.25Z"/><path fill="#000105" d="M225.571 72.546a26.232 26.232 0 0 0 0 22.617l1.596 3.339a4.124 4.124 0 0 0 3.586 2.344l9.329.306a4.124 4.124 0 0 0 4.048-2.817l3.078-9.228a16.204 16.204 0 0 0-.129-10.626l-3.32-9.201a4.124 4.124 0 0 0-4.019-2.722l-8.99.304a4.121 4.121 0 0 0-3.582 2.343l-1.597 3.341Z"/><path fill="#000105" d="M243.449 87.364h15.534v-7.018h-15.534zM225.072 136.183a26.225 26.225 0 0 0 0 22.617l1.595 3.339a4.127 4.127 0 0 0 3.586 2.344l9.33.306a4.123 4.123 0 0 0 4.047-2.817l3.078-9.228a16.204 16.204 0 0 0-.129-10.626l-3.32-9.201a4.124 4.124 0 0 0-4.018-2.722l-8.991.303a4.124 4.124 0 0 0-3.582 2.344l-1.596 3.341Z"/><path fill="#000105" d="M242.949 151.001h15.534v-7.018h-15.534zM220.011 200.07a26.232 26.232 0 0 0 0 22.617l1.596 3.338a4.122 4.122 0 0 0 3.586 2.344l9.329.307a4.126 4.126 0 0 0 4.048-2.818l3.078-9.227a16.207 16.207 0 0 0-.129-10.627l-3.32-9.2a4.123 4.123 0 0 0-4.019-2.722l-8.99.303a4.124 4.124 0 0 0-3.582 2.344l-1.597 3.341Z"/><path fill="#000105" d="M237.889 214.887h15.534v-7.017h-15.534zM380.426 72.546a26.225 26.225 0 0 1 0 22.617l-1.595 3.339a4.127 4.127 0 0 1-3.586 2.344l-9.33.306a4.125 4.125 0 0 1-4.048-2.817l-3.077-9.228a16.197 16.197 0 0 1 .129-10.626l3.319-9.201a4.126 4.126 0 0 1 4.019-2.722l8.991.304a4.121 4.121 0 0 1 3.582 2.343l1.596 3.341Z"/><path fill="#000105" d="M347.015 87.364h15.534v-7.018h-15.534zM380.926 136.183a26.232 26.232 0 0 1 0 22.617l-1.595 3.339a4.127 4.127 0 0 1-3.586 2.344l-9.33.306a4.125 4.125 0 0 1-4.048-2.817l-3.078-9.228a16.204 16.204 0 0 1 .13-10.626l3.319-9.201a4.125 4.125 0 0 1 4.019-2.722l8.99.303a4.127 4.127 0 0 1 3.583 2.344l1.596 3.341Z"/><path fill="#000105" d="M347.514 151.001h15.535v-7.018h-15.535zM385.986 200.07a26.225 26.225 0 0 1 0 22.617l-1.595 3.338a4.123 4.123 0 0 1-3.586 2.344l-9.33.307a4.127 4.127 0 0 1-4.048-2.818l-3.077-9.227a16.2 16.2 0 0 1 .129-10.627l3.319-9.2a4.125 4.125 0 0 1 4.019-2.722l8.991.303a4.125 4.125 0 0 1 3.582 2.344l1.596 3.341Z"/><path fill="#000105" d="M352.575 214.887h15.534v-7.017h-15.534z"/><path fill="#FFFFFE" d="M374.844 1116.7a77.94 77.94 0 0 1-9.523 12.5 78.045 78.045 0 0 1-16.099 13.2l-.274-13.2h-1.958l.294 14.37a77.982 77.982 0 0 1-13.311 6.11l-.303-20.48h-1.958l.314 21.12a77.7 77.7 0 0 1-13.683 3.05l-.235-24.17h-1.957l.235 24.4c-2.682.28-5.412.42-8.172.42-2.212 0-4.395-.09-6.558-.27l-.078-24.55h-1.957l.078 24.36a77.376 77.376 0 0 1-14.279-2.92l.058-21.44h-1.957l-.059 20.82a78.049 78.049 0 0 1-15.552-7.18l.147-13.64H266.1l-.137 12.43a78.542 78.542 0 0 1-14.867-12.43c-3.572-3.82-6.763-8-9.523-12.5-7.291-11.87-11.49-25.85-11.49-40.81 0-28.19 14.916-52.88 37.299-66.63l-1.145 107.44h1.957l1.165-108.6a76.387 76.387 0 0 1 14.553-6.48l-.352 115.08h1.957l.353-115.69a76.273 76.273 0 0 1 13.32-2.73l.391 118.42h1.958l-.392-118.62c2.33-.21 4.688-.32 7.067-.32 2.241 0 4.453.1 6.645.29l1.165 118.65h1.957l-1.155-118.47c4.434.49 8.76 1.34 12.939 2.55l1.752 115.92h1.957l-1.742-115.34a76.894 76.894 0 0 1 12.762 5.32l2.242 110.02h1.957l-2.222-108.95c23.793 13.4 39.873 38.89 39.873 68.14 0 14.96-4.208 28.94-11.5 40.81Z"/><path fill="#FFFFFE" d="M308.214 1160.31c-46.626 0-84.424-37.79-84.424-84.42 0-46.62 37.798-84.41 84.424-84.41 46.616 0 84.413 37.79 84.413 84.41 0 46.63-37.797 84.42-84.413 84.42Zm-89.043-84.42c0 49.18 39.863 89.04 89.043 89.04 49.17 0 89.033-39.86 89.033-89.04 0-49.18-39.863-89.04-89.033-89.04-49.18 0-89.043 39.86-89.043 89.04Z"/><path fill="#FFFFFE" d="M308.214 1169.85c-51.892 0-93.956-42.07-93.956-93.96 0-51.89 42.064-93.95 93.956-93.95 51.891 0 93.956 42.06 93.956 93.95s-42.065 93.96-93.956 93.96Zm-97.627-93.96c0 53.92 43.71 97.62 97.627 97.62 53.907 0 97.616-43.7 97.616-97.62s-43.709-97.62-97.616-97.62c-53.917 0-97.627 43.7-97.627 97.62Z"/><path fill="#FFFFFE" d="M308.214 1169.85c-51.892 0-93.956-42.07-93.956-93.96 0-51.89 42.064-93.95 93.956-93.95 51.891 0 93.956 42.06 93.956 93.95s-42.065 93.96-93.956 93.96Zm-97.627-93.96c0 53.92 43.71 97.62 97.627 97.62 53.907 0 97.616-43.7 97.616-97.62s-43.709-97.62-97.616-97.62c-53.917 0-97.627 43.7-97.627 97.62Z"/><path fill="#FFFFFE" d="M308.214 1169.85c-51.892 0-93.956-42.07-93.956-93.96 0-51.89 42.064-93.95 93.956-93.95 51.891 0 93.956 42.06 93.956 93.95s-42.065 93.96-93.956 93.96Zm0-191.58c-53.917 0-97.627 43.7-97.627 97.62s43.71 97.62 97.627 97.62c53.907 0 97.616-43.7 97.616-97.62s-43.709-97.62-97.616-97.62Zm0 197.74c-55.297 0-100.122-44.82-100.122-100.12 0-55.3 44.825-100.12 100.122-100.12 55.287 0 100.112 44.82 100.112 100.12 0 55.3-44.825 100.12-100.112 100.12Zm-103.127-100.12c0 56.95 46.176 103.12 103.127 103.12 56.951 0 103.117-46.17 103.117-103.12s-46.166-103.12-103.117-103.12c-56.951 0-103.127 46.17-103.127 103.12Z"/><path fill="#000105" d="M308.214 1173.51c-53.917 0-97.627-43.7-97.627-97.62s43.71-97.62 97.627-97.62c53.907 0 97.616 43.7 97.616 97.62s-43.709 97.62-97.616 97.62Zm-100.122-97.62c0 55.3 44.825 100.12 100.122 100.12 55.287 0 100.112-44.82 100.112-100.12 0-55.3-44.825-100.12-100.112-100.12-55.297 0-100.122 44.82-100.122 100.12Z"/><path fill="#FFFFFE" d="M404.002 1330.86a74.502 74.502 0 0 0-26.173 4.75 197.972 197.972 0 0 1-139.238 0 74.502 74.502 0 0 0-26.173-4.75h-20.383a4.275 4.275 0 0 1-4.269-4.27v-32.57c0-2.36 1.911-4.27 4.269-4.27h232.35a4.269 4.269 0 0 1 4.269 4.27v32.57c0 2.35-1.912 4.27-4.269 4.27h-20.383Z"/><path fill="#000105" d="M255.264 1305.74a2.399 2.399 0 0 1-2.403-2.4v-.69c0-1.33 1.076-2.41 2.403-2.41h105.892a2.407 2.407 0 0 1 2.403 2.41v.69c0 1.33-1.076 2.4-2.403 2.4H255.264ZM369.559 1129.2H246.486l-5.872-12.5h134.817z"/><path fill="#FFFFFE" d="M304.238 425.122a4.544 4.544 0 1 1 4.545-4.544 4.544 4.544 0 0 1-4.545 4.544ZM304.847 520.484a4.748 4.748 0 1 1 0-9.497 4.748 4.748 0 0 1 0 9.497ZM305.451 604.362a4.748 4.748 0 1 1 0-9.497 4.748 4.748 0 0 1 0 9.497ZM305.898 680.909a4.747 4.747 0 1 1 0-9.495 4.747 4.747 0 0 1 0 9.495ZM285.627 778.78a4.748 4.748 0 1 1 0-9.497 4.748 4.748 0 0 1 0 9.497ZM327.316 778.78a4.748 4.748 0 1 1 0-9.495 4.748 4.748 0 0 1 0 9.495ZM307.596 908.428a4.748 4.748 0 1 1 0-9.495 4.748 4.748 0 0 1 0 9.495ZM307.096 861.408a4.748 4.748 0 1 1 0-9.497 4.748 4.748 0 0 1 0 9.497Z"/><path fill="#000105" d="M268.194 1116.7h-1.957l1.145-107.44c.646-.39 1.311-.78 1.977-1.16l-1.165 108.6ZM267.91 1142.84c-.655-.4-1.301-.8-1.947-1.21l.137-12.43h1.957l-.147 13.64Z"/><path fill="#FFFFFE" d="m267.91 1142.84-1.869 174.58-1.957-.02 1.879-175.77c.646.41 1.292.81 1.947 1.21ZM268.057 1129.2H266.1l.137-12.5h1.957zM269.359 1008.1c-.666.38-1.331.77-1.977 1.16l8.613-803.686 1.957.03-8.593 802.496Z"/><path fill="#000105" d="M285.517 1116.7h-1.957l.352-115.08c.646-.22 1.302-.42 1.958-.61l-.353 115.69ZM285.42 1150.64c-.656-.19-1.312-.41-1.958-.62l.059-20.82h1.957l-.058 21.44Z"/><path fill="#FFFFFE" d="m285.42 1150.64-.509 165.85h-1.958l.509-166.47c.646.21 1.302.43 1.958.62ZM285.478 1129.2h-1.957l.039-12.5h1.957zM285.87 1001.01c-.656.19-1.312.39-1.958.61l2.202-722.398-6.616-137.763 1.948-.098 6.626 137.812-2.202 721.837Z"/><path fill="#000105" d="m346.736 1116.7-2.242-110.02c.666.35 1.331.7 1.977 1.07l2.222 108.95h-1.957Z"/><path fill="#FFFFFE" d="M346.471 1007.75c-.646-.37-1.311-.72-1.977-1.07l-14.856-727.644.332-74.157 1.958.01-.333 74.128 14.876 728.733Z"/><path fill="#000105" d="m347.284 1143.57-.294-14.37h1.958l.274 13.2c-.637.41-1.282.79-1.938 1.17Z"/><path fill="#FFFFFE" d="m346.99 1129.2-.254-12.5h1.957l.255 12.5zM350.797 1315.55l-3.513-171.98c.656-.38 1.301-.76 1.938-1.17l3.533 173.11-1.958.04Z"/><path fill="#000105" d="m331.517 1116.7-1.752-115.92c.656.18 1.311.38 1.967.58l1.742 115.34h-1.957Z"/><path fill="#FFFFFE" d="m329.765 1000.78-10.913-721.548 7.341-137.372 1.957.108-7.34 137.303 10.922 722.089c-.656-.2-1.311-.4-1.967-.58Z"/><path fill="#000105" d="m332.026 1150.32-.314-21.12h1.958l.303 20.48a64.2 64.2 0 0 1-1.947.64Z"/><path fill="#FFFFFE" d="m331.712 1129.2-.195-12.5h1.957l.196 12.5zM334.551 1316.96l-2.525-166.64a64.2 64.2 0 0 0 1.947-.64l2.535 167.25-1.957.03Z"/><path fill="#000105" d="m299.581 1116.7-.391-118.42c.646-.08 1.302-.15 1.957-.2l.392 118.62h-1.958Z"/><path fill="#FFFFFE" d="m299.19 998.28-2.369-718.931-18.076-199.901 1.957-.176 18.067 199.989 2.378 718.819c-.655.05-1.311.12-1.957.2Z"/><path fill="#000105" d="m299.699 1153.56-.078-24.36h1.957l.078 24.55c-.655-.05-1.311-.12-1.957-.19Z"/><path fill="#FFFFFE" d="m299.621 1129.2-.04-12.5h1.958l.039 12.5zM300.237 1316.24l-.538-162.68c.646.07 1.302.14 1.957.19l.539 162.48-1.958.01Z"/><path fill="#000105" d="m316.024 1116.7-1.165-118.65c.656.04 1.312.11 1.967.18l1.155 118.47h-1.957ZM316.386 1153.6l-.235-24.4h1.957l.235 24.17c-.655.08-1.301.16-1.957.23Z"/><path fill="#FFFFFE" d="m316.151 1129.2-.127-12.5h1.957l.127 12.5zM317.981 1316.37l-1.595-162.77c.656-.07 1.302-.15 1.957-.23l1.596 162.98-1.958.02ZM314.859 998.05l-7.047-719.66.01-.049 18.341-199.744 1.948.186-18.341 199.686 7.056 719.761c-.655-.07-1.311-.14-1.967-.18ZM274.45 81.273a5.872 5.872 0 1 1-.001-11.745 5.872 5.872 0 0 1 .001 11.745Z"/><path fill="#FFFFFE" d="M274.45 86.52c-4.417 0-7.997-2.89-7.997-6.455s3.58-6.455 7.997-6.455c4.416 0 7.996 2.89 7.996 6.455s-3.58 6.455-7.996 6.455ZM274.523 145.409a5.872 5.872 0 1 1-.002-11.744 5.872 5.872 0 0 1 .002 11.744Z"/><path fill="#FFFFFE" d="M274.523 150.657c-4.417 0-7.997-2.89-7.997-6.455 0-3.566 3.58-6.456 7.997-6.456 4.416 0 7.996 2.89 7.996 6.456 0 3.565-3.58 6.455-7.996 6.455ZM270.743 208.755a5.872 5.872 0 1 1 0-11.744 5.872 5.872 0 0 1 0 11.744Z"/><path fill="#FFFFFE" d="M270.743 214.002c-4.416 0-7.996-2.89-7.996-6.455s3.58-6.455 7.996-6.455 7.996 2.89 7.996 6.455-3.58 6.455-7.996 6.455ZM332.641 81.273a5.872 5.872 0 1 0 0-11.744 5.872 5.872 0 0 0 0 11.744Z"/><path fill="#FFFFFE" d="M332.641 86.52c4.416 0 7.996-2.89 7.996-6.455s-3.58-6.455-7.996-6.455-7.996 2.89-7.996 6.455 3.58 6.455 7.996 6.455ZM332.568 145.409a5.872 5.872 0 1 0 .002-11.744 5.872 5.872 0 0 0-.002 11.744Z"/><path fill="#FFFFFE" d="M332.568 150.657c4.417 0 7.997-2.89 7.997-6.455 0-3.566-3.58-6.456-7.997-6.456-4.416 0-7.996 2.89-7.996 6.456 0 3.565 3.58 6.455 7.996 6.455ZM336.348 208.755a5.872 5.872 0 1 0 0-11.744 5.872 5.872 0 0 0 0 11.744Z"/><path fill="#FFFFFE" d="M336.348 214.002c4.416 0 7.996-2.89 7.996-6.455s-3.58-6.455-7.996-6.455-7.996 2.89-7.996 6.455 3.58 6.455 7.996 6.455ZM338.446 278.85c-.049.774-.078 1.997-.108 3.641h-69.909c-.029-1.644-.068-2.867-.117-3.641a60.577 60.577 0 0 0-.333-3.582h70.8a59.742 59.742 0 0 0-.333 3.582Z"/><path fill="#000105" d="M264.637 1327.01a6.462 6.462 0 0 1-6.466-6.46 6.47 6.47 0 0 1 6.466-6.47 6.47 6.47 0 0 1 6.465 6.47c0 3.57-2.895 6.46-6.465 6.46ZM282.066 1327.01a6.462 6.462 0 0 1-6.466-6.46 6.47 6.47 0 0 1 6.466-6.47 6.47 6.47 0 0 1 6.466 6.47c0 3.57-2.895 6.46-6.466 6.46ZM299.495 1327.01a6.462 6.462 0 0 1-6.466-6.46 6.47 6.47 0 0 1 6.466-6.47 6.47 6.47 0 0 1 6.466 6.47c0 3.57-2.895 6.46-6.466 6.46ZM316.925 1327.01a6.462 6.462 0 0 1-6.466-6.46 6.47 6.47 0 0 1 6.466-6.47 6.47 6.47 0 0 1 6.465 6.47 6.46 6.46 0 0 1-6.465 6.46ZM334.354 1327.01a6.462 6.462 0 0 1-6.466-6.46 6.47 6.47 0 0 1 6.466-6.47 6.47 6.47 0 0 1 6.466 6.47c0 3.57-2.895 6.46-6.466 6.46ZM351.783 1327.01a6.46 6.46 0 0 1-6.465-6.46 6.47 6.47 0 0 1 6.465-6.47 6.47 6.47 0 0 1 6.466 6.47c0 3.57-2.895 6.46-6.466 6.46Z"/></g></svg>