<svg xmlns="http://www.w3.org/2000/svg" width="224" height="422"><path fill="#FFFDFD" fill-rule="evenodd" d="M202.225 34.14c.476.802.144.974.202 1.75.81.037 1.598-1.417 1.104-2.086 1.246.165-.326 3.285-.9 3.837-.492-.639-.422.406-1.11-.33-.527.539-.2.695-.683 1.486-.498-.223-.788-.708-1.33-.396-.514.514-.213 1.162-.817 1.928 1.011-.26 1.1-.087 1.883-.646.01.603-1.689.995-2.057 2.044-.7-.117-.136-.918-.622-1.151-2.39 1.336-1.298 6.536-2.288 8.492-.25-.113-.068-.459-.024-.73-.784-.134-.025 1.314-.552 1.042.28.823.684-1 1.373-.557-.213 2.598.26 3.515-.453 6.384-.026.869-1.051-.11-1.152.623.143.484.345-.452.888.264-.81 3.775-3.03 4.94-4.127 8.186-4.085 2.098-7.824 5.834-9.548 12.607-.545 2.142-.548 4.392-2.16 5.635-5.98-1.532-9.73-4.248-15.744-4.689 1.593 1.093 6.359 1.038 8.006 3.108-1.615.079-1.87 1.698-1.367 2.974.632-.546 1.152-.272 1.75-.204.484-.79.156-.947.683-1.487-.23-.68-.838-1.156-1.444-1.635 1.71-.704 2.76 1.106 3.86 1.63-.913.285-1.284-.56-2.128-.15-.306 1.253-.47 2.445-.127 2.86-.463.172-.84.758-1.105 2.084-.031.576.692.745 1.136 1.064.448-.742-.893-.513-.912-.997.079-.737 2.323-.474 1.127-1.354 1.295-.093 2.6-1.813 2.141-3.948l4.213 1.254c-.022 1.103-.722.953-1.127 1.354-.973-.404-1.529-1.033-2.175-1.614-.742.395-.29.998-.971 1.642.516 1.227 2.732 1.474 3.194 1.435.523.253-.134 1.065-.641.532.637 2.713-2.119 7.56-2.744 12.461-.312.345-.755.442-.998.911-.461.622.189.64.18 1.019-.503 2.51-1.814 3.758-1.075 5.231-16.56 54.138-29.533 97.666-43.891 145.786-.105.497-.392.652-.864.468.355.675.846 1.276.228 2.482-.406.159-.636.09-.888-.265.27 5.702 2.175 10.841 10.197 11.969 4.615.648 8.396-1.004 11.607-3.304 4.366-3.128 7.525-10.432 11.628-13.92 2.475-2.1 7.693-3.387 11.125-.066 5.094 4.924 4.44 17.573.409 26.193-3.803 8.134-9.59 13.513-14.52 19.578-4.386 5.396-8.036 14.487-7.688 22.578.72 16.698 6.702 31.662 3.672 50.1-.645 3.924-1.814 9.889-3.561 14.39-1.747 4.505-5.045 7.9-6.225 11.183-.908 1.075-2.01 1.79-2.676 3.31-.187-.335-.71-.485-1.265-.62-.352 1.093-.107 1.154-.594 1.996-9.814 7.302-21.136 11.82-35.993 9.804-11.374-.614-22.051-5.13-35.854-8.504-.177 1.275.65 2.005.472 3.28-1.87.377-5.87-.938-5.659-2.893.293-.95 1.401-.392 1.484-1.73.003-.708-.645.122-1.11-.33.057-.467.252-.682.641-.535-.756-.437-1.315.749-2.793-.348.038-.505.443-.328.797-.246-.397-.998-1.22.071-1.863-1.037-.245.443.19.516.533.642-1.13.6-.645-1.255-2.086-1.104.09.385.62.533.976.773-5.902-.85-9.69-3.872-14.88-5.155.043-.377.323-.319.42-.6-1.943-.492-.972-.23-3.616-.835.323-1.02 1.02.253 1.62.24-.728-1.909-4.496-1.196-5.593-3.111-.242.443.193.515.534.64-.382.477-2.083-.385-.977-.773-2.22-.198-4.386-1.26-4.769-2.627-.43 1.25-1.725-1.143-3.286-1.943-2.095-1.078-3.305-2.114-5.17-3.714-.725-.62-.712-1.359-1.312-2.08-.82-.986-2.497-2.107-2.953-3.051-2.467-7.658-8.168-13.564-7.405-22.968-.232-.62-.321-1.317-.647-1.883.558-22.48 13.933-38.748 25.67-50.538 6.156-6.184 13.05-12.085 17.158-19.516.72-1.303 1.822-3.414 2.274-4.392.489-1.059 1.017-2.621 1.186-3.993.12-.954-.332-1.594-.381-2.769-.121-3.007.484-6.513.2-9.596-.309-3.413-.223-7.227-.592-9.351-.3-1.71-.773-3.8.074-6.738-.936.638-.383 2.059-.925 3.103.963-17.983 11.283-35.39 30.373-27.41.389-.312.7-.77 1.216-.845 1.878.35 2.896 1.163 4.015 1.92.241.923.49 1.843.892 2.68 4.608 2.839 7.924 6.38 10.725 10.194 8.355 4.987 9.455-7.42 12.47-15.117 4.77-12.175 10.179-29.24 14.938-42.87 6.762-19.37 12.825-37.917 18.79-55.003 2.005-5.742 4.064-13.749 6.611-17.343.325-.734.285-1.268.308-1.84 1.902-1.874 2.736-7.03 3.612-10.514 1.43-.958 2.018-4.358 2.516-6.011.567-1.022 2.171-1.152 1.968-2.551-.383-.712-.687.48-1.464.047 1.354-2.396-.894-4.316-1.52-6.246.846-1.946-.036-2.958-.141-4.388.815-1.806.93-2.315.389-3.747l-4.212-1.254c-.333-.626-.259-1.473-.87-1.948.5-1.37 1.396-2.007 2.568-2.134 1.418.583 1.059 2.085 2.775 2.033.151.724.79 1.184.292 2.26.935.121 1.903.306 2.637.06.617-1.2.216-1.852.35-2.792.571-.66 1.264-1.104 1.612-2.175-.156-.597-1.519-.543-2.152-.882.444-.606-.16-.804.684-1.485-.742-.456-.424 1.049-1.306.334-.63-1.04.795-.358-.557-1.372-.886.614.32 1.341.935 1.726-.692.362-1.508-.787-2.372-.948 1.157-.657.364-.578 1.102-2.087-.726.035-.727 1.407-1.572 1.224.304-1.16.98-1.629 1.459-2.465 1.726 1.238 4.15 2.094 4.595 4.024 2.041-.696 3.061-3.282 4.445-5.194-1.307.192-4.119-1.42-4.859-3.137 1.267.037 2.533 1.57 3.614.835-.555-.527-4.161-.41-2.488-2.189-.535.27-.6 1.414-1.505 1 .32-1.125 1.006-1.578 1.614-2.174 2.07.987 4.066 2.016 4.375 3.957 2.144-.508 2.936-3.51 4.443-5.195-1.002-.13-3.348 1.488-4.923-.5.663-.267 1.134-.888 1.794-1.157.105-1.514-.207-1.343-1.469-2.368-.06-1.677 1.92-2.356 3.21-2.665 2.053.873 2.24 2.757 2.203 4.76 2.098-.366 2.937-3.052 4.314-4.75-.195-.88-.892.147-1.399-.176.484-.758-.36-.796-.046-1.462-1.018 1.167-2.11-.786-3.26-1.212.262-.774.93-.802 1.191-1.576-.821-.284-1.015 1.729-1.66.711.533-1.08 1.29-1.745 2.278-1.976.887.697 1.791 1.388 2.776 2.033 1.04.244-.27 1.759 1.155 1.792 1.84-.957 2.902-3.345 4.223-5.26-.694-.858-1.204 1.069-2.325.515 1.118-.278 1.666-1.764 1.368-2.973-1.144-.089-.501 1.09-1.196 1.575-.052-.604.402-1.561-1.31-2.08-.18.7 1.278 1.374.383 2.77-1.041-.561-.839-1.195-1.733-1.482-.9-1.968.96-4.196 2.563-4.549 1.072.473 1.94 1.058 2.618 1.746.548.976-.786 1.594.36 2.038-.151.412-.78-.064-.864.467.125.438.84-.366 1.33.397 3.26-5.326 9.054-6.098 12.605-1.8.47.567 1.174 1.823 1.404 2.59.023.078.344 2.949.425 1.817-.086 1.214-.154 1.649-1.548 1.954Zm-43.518 26.15c.056 1.287 1.685 3.452 3.021 2.833-.766-.676-.788-1.034-.646-1.882-1.354-.656-1.336-.009-2.375-.95Zm25.353-33.25c.668.262 1.856-1.597 1.347-1.288-.482.369-.93.8-1.347 1.288Zm2.462 1.46c.261-.203.47-.51.552-1.044-.753-.457-1.206.826-.552 1.043Zm7.388 4.372c-.563-.241-.818.089-.927.689 1.432-.006 1.055-1.238 1.742-2.62-.905-.14-1.272 1.415-.815 1.931Zm-3.453 1.867.133-.443c.234-.254.597-.271 1.02-.178-.067.223-.134.442-.198.665.68.227.84-.51 1.684.019l.264-.888c-.773.245-2.244.076-1.8-1.26-1.206.04-.312 1.427-1.923 1.6.247.114.136.423.023.732.725.307 1.061-.103 1.529-.269-.301-.101-.518-.042-.732.022Zm-.174 1.397c.46.627.78.464 1.2.84.39-.709-.819-.55-.337-1.306.479-.418.573.642.797-.245-.547-.84-1.186.351-1.66.71Zm1.816-.423a.495.495 0 0 0 .265-.889c-.16.612-.501.338-.265.89Zm-2.303 1.245c-.064.22-.131.444-.197.664.73.05.472-.028 1.11.331-.118-.639.319-.66.042-.952-.14.316-.597.043-.955-.043Zm-.946 2.373c.485-.037.819-1.542.239-1.62-.113.37-1.203 1.406-.24 1.62Zm-8.518-3.018c.507.25.604-.262 1.176.108.045-.148.087-.297.132-.444.001-.188-.11-.313-.378-.353-.019.77-.82.086-.93.69Zm7.654 3.487c-.213.485-.195.847.178 1.017.168-.097.833-.898.33-1.108-.099.158-.262.202-.508.091Zm.27 1.527c-.391-.727-1.06-.212-1.463.047 1.302.404-.072.065-.041.953.728.02 1.136.31 1.394.175-.596-.477-.515-.856.11-1.175Zm-5.176 5.219c1.131.185.552-.655 1.127-1.354-.222-.068-.443-.132-.666-.2-.141.923-.077.706-.461 1.554Zm-.971 1.64c.131.055.251.114.156.29l.441.132c-.277-.921 1.04-1.031.307-1.84-.67.502-.098 1.167-.904 1.419Zm-10.877 3.281c.268-.592-.33-1.66-.847-1.217.474.305.377.915.847 1.217Zm6.48 3.378c.159-.28.441-.33.487-.82l-.668-.2c-.212.488-.195.85.18 1.02Zm-.996.911c.114-.248.422-.136.73-.024.262-1.457-1.326-.411-.73.024Zm-4.487 6.148c.263-.201.47-.508.552-1.043-.75-.455-1.206.828-.552 1.043Zm-5.9 7.659c.636.165 1.36-1.255.684-1.487-.53.54-.201.695-.685 1.487Zm-.42 11.946c.56.068.363.55 1.043.551.096-.853.733-.708.907-1.42-.371-.667-.709-1.353-1.955-1.548-.843 1.36-1.339 4.57.006 2.417Zm1.799 1.26c.843-.14 1.278-.61 1.84.305.563-.954 1.012-1.54.728-2.438-.794-.131-1.218-.459-1.71-.75-.795.612-.584 1.965-.858 2.882Zm-1.973.137c-.134.44-.69.102-.707.754.8-.06-.044.77.754.708.159-.673 1.258-1.103.464-1.553-.538 1.16-.523.704-.51.09Zm4.039 2.65c.141.878-.212 1.61-.15 2.129.199-.434.73-.257.929-.69-.69-.47.41-.705.684-1.486-.639-.273-.609-.91-.779-1.44-.164.311-.978 1.74-.041.955-.07.222.1.318.09.509-.305-.1-.521-.041-.733.023Zm-4.438 7.613c-.898-.011-.104-.938-.91-.995-.253.678-.336 1.67-.817 1.927-1.671-.356-3.37-1.294-4.125-.746 3.037.685 7.299 2.583 9.38 2.554-2.098-.699-2.99-.902-4.524-1.83.439-1.16.24-.34.996-.91Zm-1.567 3.636c-.382-.132-.704-.155-.951-.043-.115.703-.921.956-.175 1.399.24-.949.339.104.664.197-.603-1.42.9-.781.594-1.997l-.132.444Zm2.242 1.392c-.1.302-.042.52.023.73-.307-.108-.863-.202-.51.091.39.098.674.254.822.485-.09-.447.361-1.186-.335-1.306Zm-3.01 1.999c-.56-.515.95-.038 1.086-.4-.45-.831-.823.226-1.62-.24-.33.398.48 1.058.533.64Zm-1.34 6.12c.066-.22.132-.443.2-.664-.502.348-.92.192-1.777-.529-.433.918.854.904 1.576 1.194Zm-5.365-.63c1.433.734 3.292 1.12 5.7 1.938-1.191-1.58-3.688-1.58-5.7-1.938Zm7.763 2.31c-.504-.286-.29-.351-1.266-.618l-.44-.132c.431.931 3.487 1.76 1.706.75Zm-6.495 9.655c-.11-.5-.932-.615-1.133-1.062.138.026.271.046.286-.154-.648-.283-.675.583-.993.91.967.3 2.029.772 2.414-.006l-.444-.133c-.138-.026-.27-.044-.288.156.132.054.253.112.158.289Zm-1.973.136c-.067.222-.134.444-.198.666 1.54.338 5.638 2.039 6.94 1.825-3.075-.656-4.764-1.857-6.742-2.491Zm-4.212 10.093c-.278-.056-.546-.09-.576.311l.666.2c.413-.539-.277-1.815-.467-.866.156.102.433.137.377.355Zm1.904.085c-.125.254-.286.063-.44-.132-.078.434-.399.415-.488.82.433.077.414.395.82.487.033-1.172 1.037.965.733-.024-.255-.126-.064-.286.13-.444-1.546-.264-.74-.095-.755-.707Zm4.287 3.448c-2.555-1.294-5.737-2.792-8.872-2.64 2.95.805 5.556 1.869 8.872 2.64Zm1.55.463c.063.03-1.527-1.091-1.33-.397.13.45 4.174 1.752 1.33.397Zm-10.6 7.224c.267.534.777-.1.755.708-1.13.438-3.532-1.485-4.412-.59 3.726.816 6.351 2.46 9.382 2.552-1.67-.524-3.274-1.082-4.526-1.83l.13-.444c.256.051.251.425.447.132-.333-.5-.29-.064-.89-.264.106-.117.807-.69.265-.887-.167 1.174-.705-.73-.951-.041.35.202-.133.271-.2.664Zm-3.326 10.356c.288.218 1.224.083 1.044.553-.35.499-1.656-.771-1.75.202 1.86 1.118 4.028 1.458 6.431 1.915-1.168-.918-4.12-.87-4.394-2.273.741-.145.913.624 1.306-.335-.019-.665-.696.527-.886-.264.091-.332 1.202-.722.264-.888-.506.67-1.402.617-2.015 1.09Zm-1.683-.018c-.052.131-.11.253-.287.156-.445-.18-2.544-.765-1.397-.175.792.315 2.019.395 2.373.949.242-.565-.293-.71-.689-.93Zm7.785 3.042c1.002-.033 1.651 1.075 2.217.66-.12-.412-2.623-1.158-2.217-.66Zm-11.2 6.804c-3.582-1.261-.463.603 1.11.332-.638-.36-.38-.283-1.11-.332Zm1.264.619c.916.847 2.12.41 3.039 1.146-.128-.759-2.388-1.851-3.039-1.146Zm3.326.99c.085.714 2.24.89 3.326.99-.813-.526-3.34-1.129-3.326-.99Zm3.705 1.345c.941-.061 1.44 1.06 1.994.594-.069-.394-2.455-1.105-1.994-.594Zm-13.286 5.701c.348.392 2.631 1.435 2.95.637-1.14-.338-3.901-1.186-2.95-.637Zm9.758 2.906c-2.56-.838-3.695-1.435-6.586-2.203 1.06 1.414 4.463 1.862 6.586 2.203Zm3.038 1.145c-.789-.083-1.974-.9-2.505-.504.788.08 1.976.9 2.505.504Zm-9.564 5.36c-.524-.15-.539-.575-1.263-.617-.522.615 1.162.956 1.263.617Zm4.928 2.916c-1.67.05-5.621-3.302-7.918-2.6 1.492.28 5.86 2.662 7.918 2.6Zm-9.627-3.349c-3.2-.896-.113.545 1.552.463-.522-.148-.963-.299-1.552-.463Zm.795 8.687c.427-.013 1.222.654 1.396.174-.457-.065-.352-.43-.533-.642-.15.41-.78-.064-.863.468Zm-4.034-.236c.642.04 1.675.806 2.06.37-.368-.58-1.605-.678-2.06-.37Zm10.645 3.17c-3.159-1.144-5.284-2.011-8.297-2.953 1.764 1.62 5.093 2.227 8.297 2.952Zm-11.472 5.275c.175-.844-2.31-1.218-2.815-1.08.73.511 1.368.511 2.815 1.08Zm.447.133c2.369.481 5.713 2.116 7.161 1.89-2.603-.285-5.12-2.537-7.161-1.89Zm-5.795 6.484c1.234-.415 2.326 1.192 3.014.414-.86-.089-3.367-1.431-3.014-.414Zm6.94 1.823c2.077.99 4.184 1.63 1.997.595-1.406-.666-4.181-1.754-5.765-1.717.712.602 2.843 1.236 3.769 1.122Zm-9.431 4.917c1.173.296 2.213.664 3.038 1.147.245-.875-3.325-1.463-3.038-1.147Zm7.161 1.893c-1.227-.21-2.865-1.171-3.835-.903.749.264 2.743 1.596 3.835.903Zm.757.706 2.44.727c.291-.414-2.453-.776-2.973-1.367-.148.39.064.583.533.64Zm-4.7-.434c.207.864-.213.985.269 1.53.084-.534.29-.842.553-1.042-.785-.067-.222-.566-.025-.732-.415-.196-.528.17-.797.244Zm-2.716 4.263c-.187-.003-.44-.125-.512.089l.889.264c.052-.586.405-1.335-.269-1.529-.371.572.143.668-.108 1.176Zm.556 1.372c2.592.631 4.819 1.999 7.54 2.245-2.417-.89-5.903-2.532-7.54-2.245Zm14.398 5.976c.28-.601-1.304-1.136-1.423-.906.388.733.704.35 1.423.906Zm-18.2-1.314c-.626-.48-.65-.224-1.199-.84-.338.574.825 1.267 1.199.84Zm-1.66.713c.994-.405 1.806.876 3.104.923.226-.803-3.616-1.754-3.104-.923Zm10.865 3.235c-2.209-1.035-4.777-1.879-7.408-2.69 1.343 1.874 4.77 1.494 7.408 2.69Zm-11.46-1.239c.565-.233 2.28-.125 1.947-.87-.156.486-.909-1.209-1.552-.461.562.13.886.388.978.773-.638.125-.93-.814-1.111-.331.557.224-.414.292-.262.89Zm2.374.948c-.506.328-1.202.303-1.817.424.254.127.063.287-.131.444 1.048-.065.972-.198 2.038-.36-.094-.862.557-.972.24-1.618-.366.236-.997.252-1.175-.108.01.428-.658 1.223-.175 1.395.09-.522.302-.816.707-.753.236.122.273.348.313.576Zm-6.64 5.265c.136-.824 1.181-3.107.638-2.948-.133.824-1.179 3.108-.638 2.948Zm6.404-1.232c2.85.812 4.397 1.854 7.539 2.245-1.928-.833-6.181-2.336-7.54-2.245Zm-3.934 5.106c.498.003 1.375.708 1.618.24-.571-.447-1.211-.725-1.618-.24Zm7.983 2.377c.772.33.423-.316-.156-.288-2.253-.614-3.68-1.212-5.256-1.805l-.444-.133c.83 1.35 4.074 1.393 5.856 2.226Zm-.763 5.809c-1.184-.727-4.59-1.857-6.965-2.557 1.5 1.93 4.037 1.256 6.965 2.557Zm-10.975-2.062c.624.282.536.952 1.066 1.284.275-.706-.721-.726-.556-1.373.535.304.824.147.863-.468-.63-.133-.836.517-1.373.557Zm1.952 1.548c-.014-.792-.42-.636.331-1.11-.117-.105-.689-.805-.887-.264.142.221-.458 1.167.556 1.374Zm5.942.321c-.007.498-.709 1.375-.243 1.618.287-1.077 1.524-.396 2.017-1.09-.581-.506-.825-.13-1.774-.528Zm-11.83 3.236c-.104-1.78 2.343-3.952 1.053-5.963-1.425.4-2.99.393-4.652 1.03-6.646 2.537-17.46 9.69-20.887 17.439-4.573 10.355 3.289 19.628 1.524 28.942-.208 1.086-.708 2.84-1.122 3.77-2.534 5.675-8.208 9.512-11.517 15.16-6.033 10.304-4.679 19.72 8.536 21.613.149-.984.594-1.42.878-2.152-.319-.136-.84-.164-.82-.486.35-.5.869-.69 1.128-1.354-1.048-1.646-2.85-1.048-4.035-.235.478.76 1.323.354 1.357 1.127-3.897.32-1.316-3.489-1.984-4.695-.36 1.028-2.058.163-1.996-.595.174-.71.392-1.34.907-1.419 1.137-.638 1.387 1.799 1.932.817.395-.652.054-.9-.116-1.241 2.204-1.912 1.435-5.247 3.355-7.211-.61-.572-1.17-.462-1.997-.594-.338-.561-.75-1.082-.646-1.883.416-.148.734-.473 1.15-.622 1.26-.25 1.257 1.755 1.71.749.947-4.566 4.309-1.655 6.311-1.741 2.62-6.905 6.675-17.624 8.416-25.016-.667-.25-4.434-1.24-4.992-2.694.197-.664.394-1.33.594-1.996-1.74-.392-3.12-3.329-.316-2.99.88.08.23.99.844 1.216.852-4.157 1.646-4.945 2.927-9.025l-2.438-.727c.01-.502-.363-.798-.047-1.463.41-.16.731-.478 1.305-.336 1.19.038.741.964 1.578 1.195-.419-1.45.493-2.239 1.72-3.35 2.08-.042 3.903.711 5.611 1.429.42-1.538 2.265-4.792.164-6.227 1.742-.77.931-2.483 2.495-4.328-.398-.931.871-2.61 1.322-4.436-.898-.168-1.052 1.038-1.95.87.533-.736 1.27-1.75 2.015-1.091.517-.704.087-2.405.683-1.487Zm15.226-.053c.37.828 1.249-.242 1.553.462-.025-.358.6-1.07.108-1.175-.176.4-.328-.235-.508.091.761.992-.918.336-1.153.622Zm-12.37-2.235c.394.117 1.112.982 1.55.463-.403-.155-.696-.367-.755-.71l.2-.663c-.272-.044-.619-.226-.73.023.184.273.005.542-.265.887Zm5.057 2.471c-3.352-.925.151.618 1.775.53-.568-.16-1.184-.366-1.775-.53Zm-5.497-.188c-.277-.055-.542-.089-.576.313.265.105.507.222.312.574.653.056 1.315.136 1.44-.777-1.078.274-.273-.605-1.199-.84-.102.301-.041.518.023.73Zm4.464 4.468c-.12-.492-.008-1.112-.558-1.373-.033.578-.147 1.197.558 1.373Zm4.214 1.255c.378.081 1.198 1.138 1.396.174-.979.455-.47-.971-1.043-.551.364.225-.165.207-.353.377Zm-3.234-.48c-1.01-.145-2.423-1.037-3.173-.703.73.237 2.571 1.604 3.173.702Zm4.144 1.476c-.861-.104-2.124-.946-2.728-.57.864.103 2.125.944 2.728.57Zm4.73 3.58c.564.242.71-.291.928-.69-.344-.06-.795-.322-.954-.041.249.113.138.42.026.73Zm-8.561-2.066c-.042.725-.468.74-.617 1.265.1.218 1.09.862 1.332.396-.342-.778-.385-.51-.666-.198-.403-.173.572-2.022-.05-1.463Zm7.612 4.44c.497.005 1.376.708 1.618.239-.761-.501-1.073-.089-1.198-.84.137-.32.162-.841.485-.82-.213.487-.194.849.18 1.02.003-.498.815-1.435-.048-1.463-.64.074-.79 1.06-1.037 1.864ZM111.59 253.4c.788.082 1.976.9 2.506.506-.636-.57-1.807-.784-2.506-.506Zm4.28 1.033c-2.917-.788.106.603 1.552.463-.54-.15-1.03-.323-1.552-.463Zm-10.172.11c.264-.92 1.134-1.587.372-2.062-.043.642-.804 1.676-.372 2.061Zm5.718.254c.226.312.753.46.978.774.277-.673-.675-1.49-.978-.774Zm-.66 2.218c.115-.247.423-.136.732-.025-.003.188-.125.44.09.51.387-.541.861-1.85-.073-2.193.57 1.188-1.063 1.203-.748 1.708Zm3.591.103c.439.133.101.688.756.708.388-.194.78-1.212.174-1.396-.018.77-.822.085-.93.688Zm-1.144 68.705c.032-.28-.204-.208-.443-.132-.544.964.059 1.921-.725 2.44 1.063.166 3.108 1.11 1.622 2.656-.636.045-1.904-.048-1.93-.818-.35.962-.865 1.612-1.08 2.818-.665-.312-.764.424-1.308.336-4.095-1.062-10.099-4.28-14.414-4.293-1.223-1.455-2.109-1.019-4.238-1.986l-.66 2.218c5.875 1.995 10.694 3.275 16.28 5.33 15.41 5.67 16.997 19.958 12.015 34.237 4.682 4.893 5.015 14.144 8.329 19.863 2.384 4.112 8.87 5.563 12.552 3.255 6.482-4.066 11.505-14.192 12.76-24.206.96-7.662.808-14.775.11-21.453-1.252-11.964-5.09-24.45-3.732-36.118 1.434-12.297 9.334-18.516 14.554-25.359 2.353-3.088 2.635-6.401-.903-7.512-.619 1.345-1.143 4.445-2.627 4.769-.073-2.266 1.718-3.26 2.317-5.346-1.073-.391-2.084-2.239-3.196-1.433.197-.416-.167-.529-.245-.798-3.53-1.993-7.604-1.13-10.153-1.574-3.387-.587-5.392-.436-8.468-1.556-6.286-2.289-8.792-5.96-12.344-10.435-.249 3.095-2.209 3.029-3.14 4.86-.008-.427.657-1.222.178-1.397-.998.406-1.807-.876-3.106-.925-.647-.163-.48 1.183-1.217.846.5-1.574-1.99-1.527-3.218-2.167-.541.523-1.091 2.374-.926 3.106 2.9.662 2.773.486 5.036 1.74.707.392.55-.818 1.306-.335.238.312-.204.337.246.797.755.48.854-.253 1.307-.334 1.511 2.173 4.743.964 5.968 3.467.243 1.214-.15 1.637-.414 3.015.512-.259 2.599.128 2.11 1.835-.986.985-1.45.402-2.484.226-1.874 2.567-1.182 5.81-2.597 7.916 1.146.024 1.295-.104 1.93.818.269.673-.334 1.93-.883 2.151-.644-.108-1.329-.574-1.84-.306-.07.455-1.063 2.15-1.903 2.33-3.235-.449-6.41-2.931-10.043-2.75.126-1.43-2.782-1.223-4.016-1.918-.824 2.26-1.2 5.343-2.49 6.742.69-2.275 1.294-4.712 2.201-6.587-.709-.856-3.148-.776-3.86-1.633-3.04 7.765-4.52 15.123-7.907 22.512 2.455-7.913 4.513-13.726 7.244-22.71-1.34-.392-2.752-.743-3.705-1.344-3.185 8.286-5.327 15.592-8.413 25.017.908 1.151 2.472.947 3.858 1.632.626-.85.086-1.839 1.105-2.085-.337.865.03 1.348-.438 2.284 1.733.56 2.095.812 3.926 1.41.477-1.408.952-2.825 1.63-3.86-.446 1.591-1.049 3.227-.967 4.057 2.13.566 3.192 1.556 4.346.812.83 1.196 3.217 2.224 4.37 1.542.124.614.456 1.119 1.289 1.35 2.54-.67 6.064 3.287 3.444 4.646.182.889 2.838-.012 2.33 1.9-.894 1.205-1.811.94-2.99.317.258 1.826-.963 4.973-1.34 6.12Zm-8.412-69.86c.298.09.592.177.89.265.05-.59-.15-1.038-.269-1.529-.045.724-.468.74-.621 1.265Zm9.093 2.708c-.307-.082-.456-.25-.6-.421-.082.536-.288.841-.55 1.044l1.772.527c-.359-.643-.735-.393-.49-1.594l-.132.444Zm-1.527.268c-.908-.562-2.2-.918-3.483-1.277.268.961 2.592 1.746 3.483 1.277Zm-9.394 1.549c.39.967 2.39 1.064 3.638 1.566.274-1.379 1.03-2.733 1.056-3.548-1.082-.201-2.5-.248-3.327-.99-.419 1.059-.913 1.98-1.367 2.972Zm4.433 1.32c.77.825 2.16 1.313 3.572 1.788.287-.961.572-1.92.861-2.883-.813-.292-2.014-1.186-3.639-1.566-.267.887-.53 1.774-.794 2.66Zm4.305 1.763c1.425.297 1.783.6 3.04 1.148.638-.537 1.427-2.245 1.211-3.26-1.406-.184-2.446-.522-3.327-.99-.856.653-.964 1.994-.924 3.102Zm-15.423.72c.134-.823 1.178-3.107.637-2.948-.225 1.078-1.372 2.106-.637 2.947Zm9.552 1.154-.886-.263c-.627 1.052.78 1.355.886.263Zm-5.316.832.263-.886c-.343-.063-.794-.323-.951-.043.603.108-.083.912.688.929Zm11.327 10.615.886.264c.404-.653-.137-.795-.402-1.085-.159.278-.44.33-.484.821Zm5.607 1.427c-.319-.198.021-.753-.754-.706-.632.618.52 1.172.754.706Zm-1.925 1.602c.524.05.91-.157 1.152-.625-.308-.08-.456-.248-.599-.42-.26.204-.471.51-.553 1.045Zm8.677 5.723c.082-.495.878-2.316.307-1.841-.079.493-.875 2.313-.307 1.84Zm-31.865-9.732c-.131.444-.264.888-.398 1.331 1.01-.038 1.526 1.143 2.22.661-.385-.102-.52-.342-.534-.643.62-.458 2.247.948 2.637.062-1.955-.294-2.5-1.305-3.925-1.41Zm5.189 2.027c-.444.406 2.288 1.464 2.882.86-.598-.445-2.12-1.09-2.882-.86Zm4.213 1.255c.152 1.236 1.829 1.013 2.973 1.369-.193-1.165-2.333-1.357-2.973-1.369Zm7.696 2.534c-.724-.723-2.516-.87-3.701-1.344-.07 1.02 2.995 1.94 3.7 1.344Zm.978.774c1.15.064 3.036 1.487 3.68.613-1.152-.065-3.039-1.488-3.68-.613Zm5.7 1.94c3.642 1.094.742-.622-.69-.93-.379-.126-.62 0-.797.244.73.013.957.525 1.486.685Zm-19.625-4.637c-2.732 8.251-5.967 16.901-8.349 24.795 1.578.216 2.578 1.26 3.77 1.121 3.173-8.99 5.557-16.198 8.482-25.238-1.753-.354-2.868-1.173-3.903-.678Zm-23.495 9.18c2.61 1.032 5.32-5.58 4.217-7.678-.545-1.04-2.99-1.61-4.5-1.098-1.602.542-2.626 3.116-3.804 4.661-.177.232-1.011.315-1.085.4-1.515 1.765-2.53 4.029-4.198 5.994-2.702 3.183-5.914 5.738-8.958 8.196-1.033.833-2.645 1.766-3.142 2.444-.767 1.048-.87 2.574-1.345 3.705-1.858 4.422-4.427 8.692-7 12.159-2.726 3.67-5.056 7.315-8.114 9.413-.701-1.171 1.395-3.855-.075-4.609-4.883-.832-7.98 10.769-1.378 9.488.626-.123 1.94-1.088 2.367-1.467 2.778-2.47 5.455-6.496 8.247-9.858 5.134-6.175 10.3-11.82 16.503-14.883 2.27-8.52 6.296-17.006 11.9-21.321.577 1.857-1.78 3.604.365 4.453Zm13.36 19.185c-.543.569.972.926 1.043.553-.102-.436-.503-.861-1.043-.553Zm4.237 1.987c.14-.356.854.508 1.552.462.62-1.217-2.167-1.146-1.552-.462Zm6.144 2.071c.209-.734-.38-1.037-1.068-1.284-.68.99.353 1.615 1.068 1.284ZM86.2 310.3c.452.031.977.202 1.084-.402-.306-.082-.454-.25-.6-.42-.157.28-.44.328-.484.822Zm4.746 1.895c.211-.67.565-1.42-.269-1.53-.07.598.007 1.112.269 1.53Zm4.592 1.608c.13-.443.265-.887.395-1.33l-.666-.199c-.05.586-.405 1.336.271 1.529Zm2.964 7.884c.442-.674-.094-.82-.69-.93-.242.565.09.82.69.93Zm5.033 1.74c-.332-.315-.013-.983-.91-.996-.418.615.805 1.278.91.997Zm1.864 1.038c.91-.392 1.935.532 2.417-.004-.235-.748-2.21-1.292-2.417.004Zm-8.248-1.49c.448-.09 1.19.362 1.307-.335-.127-.652-1.406-.572-1.307.335Zm4.37 1.542c.423.093.785.075 1.02-.18-.16-.1-.205-.261-.09-.508-.36.025-1.071-.601-1.177-.109.253.175.369.421.246.797Zm5.899 1.273c.18-.469-.756-.333-1.044-.55-.766.727 1.065 1.385 1.044.55Zm-31.977-8.554.666.198c.067-.409.554-1.044-.178-1.02-.161.28-.444.33-.488.822Zm13.921 11.628c.458-.303.878-1.713.659-2.217-1.623-.3-2.452-1.03-3.926-1.41-.324.549-.505 1.358-.97 1.641-.222-.377.067-1.028.24-1.619-1.239-.764-2.472-.74-3.86-1.631-.388.308-.217 1.618-.884 2.151 2.855 1.268 5.347 1.456 8.741 3.085Zm-9.758-2.905c-1.01-.145-2.421-1.035-3.17-.703 1.006.144 2.419 1.035 3.17.703Zm7.44 8.25c.474.223 1.745 1.638 2.219.661-.437-.371-2.025-1.289-2.219-.66Zm9.337 3.505c.903-.53 1.953 1.336 2.572.284-.577-.557-1.638-.85-2.241-1.392-.047.73.028.472-.33 1.108Zm-17.097-5.816c-.94-.053-1.338-.209-1.93-.815-.477 1.077 1.683 1.847 1.93.815Zm4.745 1.896c.05-1.09-.797-.548-1.575-1.193-.577.982 1.394 1.199 1.575 1.193Zm19.804 5.656c-.028-.792-1.45-.828-2.308-1.17-.214.806 1.66 1.446 2.308 1.17Zm-12.33-3.188c.494.539 1.552.774 2.308 1.17.876-1.107-2.014-1.907-2.309-1.17Zm11.567 8.997c.177-1.175.974-2.915 1.386-4.658-3.946-1.442-5.706-1.414-9.315-2.773-.111.25-.148.64-.42.6-1.207-.454-2.343-1.3-3.639-1.567-1.205-.247-.619-.027-1.483-.684-1.102-.831-4.254-1.76-4.57-.878-3.047-2.404-6.222-1.076-9.18-3.215-1.217 1.264-1.734 4.211-2.228 5.855 1.508.495 4.2 2.472 4.857.72.267 1.407 2.635 1.675 4.391 2.275.423-.02.299-1.057.774-.977-.05 1.425 3.597 2.3 4.746 1.896-.544 1.908 2.78 1.722 4.328 2.496.137-.32.165-.842.485-.82.678 1.039 3.315 1.442 4.302 1.763.717-.148-.113-1.022.554-1.042-.175 1.49 3.19 1.95 4.46 2.051.72-1.01-.81-.803-.493-1.595.425.264.528.847 1.045.553Zm-26.14-4.645c-.181.47.756.334 1.043.552.088-.296.177-.592.263-.886-.448.089-1.188-.364-1.307.334Zm10.668 3.9c.398-.775-.06-1.083-.846-1.217-.572.891.14 1.577.846 1.217Zm-11.065-2.57c.28.159.331.443.822.487.286-.489.647-.931-.113-1.24-.02.652-.575.313-.709.753Zm-2.968 1.049c.435.073.416.395.824.485.386-.193.613-.957.394-1.33l-.665-.198c-.263.2-.468.507-.553 1.043Zm-2.86-.128c.421-.209.431-1.02-.4-1.086-.235.563-.202.98.4 1.086Zm52.024 35.286c-.755-1.206-1.043-3.65-2.181-4.029 1.145.994 1.236 3.545 2.18 4.029Zm4.257 11.648c-.125-.621-1.252-2.455-1.092-2.015-.002.684 1.676 2.804 1.092 2.015ZM41.61 387.07c1.82.258 3.063.098 4.633.655-2.19-1.17-4.639-3.193-7.43-3.417 1.075.843 2.34 1.584 2.797 2.762Zm13.976 6.577c-1.196-.434-2.105-.99-3.55-1.057.804.717 3.105 1.153 3.55 1.057Zm10.896 6.382c.923.165 1.881-2.516.859-2.883-.6 1.216-.567 1.456-.86 2.883Z"/></svg>